<?xml version="1.0" encoding="utf-8"?>
<!-- Generator: Adobe Illustrator 23.1.1, SVG Export Plug-In . SVG Version: 6.00 Build 0)  -->
<svg version="1.1" id="Capa_1" xmlns="http://www.w3.org/2000/svg" xmlns:xlink="http://www.w3.org/1999/xlink" x="0px" y="0px"
	 viewBox="0 0 340.52 333.27" style="enable-background:new 0 0 340.52 333.27;" xml:space="preserve">
<style type="text/css">
	.st0{opacity:0.4;fill:#F39882;}
	.st1{fill:#F39882;}
	.st2{fill:#FFFFFF;}
</style>
<circle class="st0" cx="177.39" cy="180.85" r="124.53"/>
<circle class="st1" cx="166.61" cy="175.58" r="124.53"/>
<g>
	<g>
		<g>
			<path class="st2" d="M133.6,131.2c-1.89,0-3.43,1.54-3.43,3.43s1.54,3.43,3.43,3.43s3.43-1.54,3.43-3.43S135.5,131.2,133.6,131.2
				z"/>
		</g>
	</g>
	<g>
		<g>
			<path class="st2" d="M164.48,195.35h-10.29v-10.29c0-1.89-1.54-3.43-3.43-3.43c-1.89,0-3.43,1.54-3.43,3.43v10.29h-10.29
				c-1.89,0-3.43,1.54-3.43,3.43s1.54,3.43,3.43,3.43h10.29v10.29c0,1.89,1.54,3.43,3.43,3.43c1.89,0,3.43-1.54,3.43-3.43v-10.29
				h10.29c1.89,0,3.43-1.54,3.43-3.43S166.37,195.35,164.48,195.35z"/>
		</g>
	</g>
	<g>
		<g>
			<path class="st2" d="M257.07,198.44c-7.58-13.14-24.35-17.63-37.49-10.05l-13.94,8.05v-29.79c0-3.68-1.22-7.34-3.43-10.29
				l-17.15-22.87v-9.74c3.99-1.42,6.86-5.23,6.86-9.7V98.26c0-5.68-4.62-10.29-10.29-10.29h-61.75c-5.68,0-10.29,4.62-10.29,10.29
				v15.78c0,4.47,2.87,8.29,6.86,9.7v9.74l-17.15,22.87c-2.21,2.95-3.43,6.61-3.43,10.29v66.44c0,9.46,7.7,17.15,17.15,17.15h55.13
				c7.69,12.89,24.28,17.21,37.28,9.7l41.59-24.02C260.05,228.41,264.7,211.64,257.07,198.44z M116.45,98.26
				c0-1.89,1.54-3.43,3.43-3.43h61.75c1.89,0,3.43,1.54,3.43,3.43v15.78c0,1.89-1.54,3.43-3.43,3.43h-61.75
				c-1.89,0-3.43-1.54-3.43-3.43L116.45,98.26L116.45,98.26z M104.79,160.47l17.84-23.78c0.45-0.59,0.69-1.32,0.69-2.06v-10.29
				h54.89v6.86h-30.88c-1.89,0-3.43,1.54-3.43,3.43s1.54,3.43,3.43,3.43h32.59l16.81,22.41c1.1,1.47,1.78,3.22,1.99,5.03H102.8
				C103.01,163.69,103.69,161.93,104.79,160.47z M113.02,243.38c-5.68,0-10.29-4.62-10.29-10.29v-3.46h62.33
				c-1.09,4.45-1.08,9.2,0.17,13.76L113.02,243.38L113.02,243.38z M167.75,222.79h-65.02v-50.43h96.06v28.03l-20.8,12.01
				C173.65,214.91,170.15,218.48,167.75,222.79z M202,254c-9.85,5.69-22.43,2.32-28.12-7.53c-5.72-9.95-2.25-22.47,7.53-28.12
				l18.62-10.75l20.58,35.65L202,254z M243.6,229.99l-17.03,9.83l-20.58-35.65l17.03-9.83c9.85-5.69,22.43-2.32,28.12,7.53
				C256.85,211.77,253.37,224.34,243.6,229.99z"/>
		</g>
	</g>
</g>
</svg>
