<?xml version="1.0" encoding="utf-8"?>
<!-- Generator: Adobe Illustrator 23.1.1, SVG Export Plug-In . SVG Version: 6.00 Build 0)  -->
<svg version="1.1" id="Capa_1" xmlns="http://www.w3.org/2000/svg" xmlns:xlink="http://www.w3.org/1999/xlink" x="0px" y="0px"
	 viewBox="0 0 348.5 327.22" style="enable-background:new 0 0 348.5 327.22;" xml:space="preserve">
<style type="text/css">
	.st0{opacity:0.4;fill:#F39882;}
	.st1{fill:#F39882;}
	.st2{fill:#FFFFFF;}
</style>
<circle class="st0" cx="184.04" cy="157.14" r="124.53"/>
<circle class="st1" cx="173.25" cy="151.88" r="124.53"/>
<g>
	<path class="st2" d="M267.07,162.71c-6.2-6.09-14.39-9.45-23.07-9.45c-3.88,0-7.62,0.79-11.15,2.06V124.4
		c0-13.93-11.33-25.27-25.26-25.27c-3.98,0-7.68,1.01-11.05,2.64c-13.69-16.59-33.61-26.12-55.24-26.12
		c-39.54,0-71.71,32.18-71.71,71.71c0,39.54,32.17,71.72,71.71,71.72c16.04,0,31.5-5.4,44.07-15.21
		c4.26,7.97,12.55,13.46,22.21,13.46c5.85,0,11.33-2.08,15.8-5.7c5.84,4.74,12.99,7.46,20.62,7.46c8.89,0,17.22-3.49,23.47-9.82
		c6.15-6.26,9.5-14.56,9.43-23.34C276.82,177.1,273.32,168.87,267.07,162.71z M258.68,165.77l-34.84,35.39
		c-7.28-9.79-6.63-23.71,2.18-32.68c4.77-4.86,11.17-7.53,17.98-7.53C249.36,160.96,254.41,162.68,258.68,165.77z M225.16,124.38
		v28.87H190v-28.87c0-9.69,7.89-17.59,17.59-17.59C217.27,106.8,225.16,114.69,225.16,124.38z M145.15,211.21v-11.68
		c0-2.11-1.72-3.84-3.84-3.84c-2.12,0-3.84,1.73-3.84,3.84v11.67c-32.34-1.93-58.23-27.94-60.01-60.34H88.8
		c2.12,0,3.84-1.73,3.84-3.84s-1.72-3.84-3.84-3.84H77.49c2.08-32.09,27.85-57.75,59.98-59.67v11.02c0,2.11,1.72,3.84,3.84,3.84
		c2.12,0,3.84-1.73,3.84-3.84v-11c17.59,1.05,33.67,9.11,45.05,22.6c-4.83,4.61-7.87,11.07-7.87,18.26v67.68
		c0,1.4,0.18,2.73,0.41,4.07C172.13,205.13,158.97,210.37,145.15,211.21z M190,192.05v-31.13h33.14c-0.87,0.72-1.8,1.35-2.6,2.16
		c-11.62,11.83-12.34,30.23-2.51,43.03c-3.02,2.25-6.62,3.51-10.43,3.51C197.89,209.63,190,201.75,190,192.05z M261.98,203.86
		c-8.52,8.67-22.86,9.54-32.64,2.69l34.82-35.38c3.19,4.28,5,9.38,5.04,14.81C269.26,192.69,266.7,199.05,261.98,203.86z
		 M145.15,112.77v35.54c0,0.92-0.33,1.81-0.93,2.51l-18.25,21.13c-0.76,0.87-1.83,1.33-2.91,1.33c-0.89,0-1.78-0.31-2.51-0.94
		c-1.61-1.38-1.78-3.81-0.4-5.42l17.31-20.04v-34.11c0-2.11,1.72-3.84,3.84-3.84C143.42,108.92,145.15,110.65,145.15,112.77z"/>
</g>
</svg>
