<?xml version="1.0" encoding="utf-8"?>
<!-- Generator: Adobe Illustrator 23.1.1, SVG Export Plug-In . SVG Version: 6.00 Build 0)  -->
<svg version="1.1" id="Capa_1" xmlns="http://www.w3.org/2000/svg" xmlns:xlink="http://www.w3.org/1999/xlink" x="0px" y="0px"
	 viewBox="0 0 361.8 300.62" style="enable-background:new 0 0 361.8 300.62;" xml:space="preserve">
<style type="text/css">
	.st0{opacity:0.4;fill:#F39882;}
	.st1{fill:#F39882;}
	.st2{fill:#FFFFFF;}
</style>
<circle class="st0" cx="197.34" cy="139.28" r="124.53"/>
<circle class="st1" cx="186.56" cy="134.02" r="124.53"/>
<g>
	<g>
		<path class="st2" d="M167.01,195.16c-17.17-5.34-28.7-21.01-28.7-39.01c0-8.8,2.75-17.18,7.96-24.23
			c0.12-0.16,0.23-0.34,0.32-0.52c0.86-1.72,0.16-3.81-1.56-4.67c-1.56-0.78-3.42-0.28-4.4,1.1c-6.08,8.26-9.29,18.05-9.29,28.32
			c0,10.41,3.29,20.3,9.5,28.61c6.01,8.03,14.57,14.09,24.1,17.05c0.34,0.11,0.69,0.16,1.04,0.16c1.49,0,2.86-0.96,3.33-2.45
			C169.87,197.68,168.84,195.73,167.01,195.16L167.01,195.16z"/>
		<path class="st2" d="M256.34,123.43c0-6.63-2.07-12.95-5.98-18.28L228.3,72.4c-0.65-0.96-1.73-1.54-2.89-1.54
			s-2.24,0.58-2.89,1.54l-9.3,13.8l-28.74-42.67c-0.65-0.96-1.73-1.54-2.89-1.54c-1.16,0-2.24,0.58-2.89,1.54l-49.34,73.24
			c-8.23,11.19-12.58,24.46-12.58,38.38c0,35.74,29.07,64.81,64.81,64.81s64.81-29.07,64.81-64.81c0-2.85-0.19-5.71-0.56-8.52
			C252.27,140.96,256.34,132.66,256.34,123.43z M225.41,80.58l19.17,28.46c0.04,0.06,0.08,0.12,0.12,0.17
			c3.06,4.14,4.67,9.05,4.67,14.22c0,13.21-10.75,23.96-23.96,23.96c-13.21,0-23.96-10.75-23.96-23.96c0-5.16,1.61-10.08,4.67-14.22
			c0.04-0.05,0.08-0.11,0.12-0.17l9.87-14.65c0.02-0.03,0.04-0.05,0.05-0.08L225.41,80.58z M239.43,155.16
			c0,31.89-25.95,57.84-57.84,57.84c-31.89,0-57.84-25.95-57.84-57.84c0-12.46,3.9-24.32,11.28-34.32c0.04-0.06,0.08-0.12,0.12-0.18
			l46.44-68.94l27.43,40.72l-8.56,12.71c-3.91,5.33-5.98,11.65-5.98,18.28c0,17.05,13.88,30.93,30.93,30.93
			c4.99,0,9.7-1.19,13.88-3.29C239.38,152.43,239.43,153.79,239.43,155.16L239.43,155.16z"/>
		<path class="st2" d="M213.12,122.58c0-1.69,0.34-3.32,1.02-4.84c0.78-1.76-0.01-3.82-1.77-4.6c-1.76-0.78-3.82,0.01-4.6,1.77
			c-1.08,2.42-1.62,5-1.62,7.68c0,6.32,3.14,12.2,8.4,15.73c0.6,0.4,1.27,0.59,1.93,0.59c1.12,0,2.23-0.54,2.9-1.55
			c1.07-1.6,0.64-3.76-0.96-4.83C215.1,130.29,213.12,126.58,213.12,122.58L213.12,122.58z"/>
		<path class="st2" d="M179.94,199.98c-0.85-2.24-4.04-2.88-5.68-1.13c-1.96,1.9-0.91,5.39,1.78,5.88
			C178.7,205.32,181.03,202.49,179.94,199.98z"/>
		<path class="st2" d="M223.57,141.48c2.25,1.56,5.47-0.16,5.42-2.9c0.05-2.73-3.17-4.46-5.42-2.9
			C221.54,136.96,221.53,140.21,223.57,141.48z"/>
	</g>
</g>
</svg>
