<?xml version="1.0" encoding="utf-8"?>
<!-- Generator: Adobe Illustrator 23.1.1, SVG Export Plug-In . SVG Version: 6.00 Build 0)  -->
<svg version="1.1" id="Capa_1" xmlns="http://www.w3.org/2000/svg" xmlns:xlink="http://www.w3.org/1999/xlink" x="0px" y="0px"
	 viewBox="0 0 361.8 343.18" style="enable-background:new 0 0 361.8 343.18;" xml:space="preserve">
<style type="text/css">
	.st0{opacity:0.4;fill:#F39882;}
	.st1{fill:#F39882;}
	.st2{fill:#FFFFFF;}
</style>
<circle class="st0" cx="197.34" cy="166.47" r="124.53"/>
<circle class="st1" cx="186.56" cy="161.21" r="124.53"/>
<g>
	<g>
		<g>
			<path class="st2" d="M232.49,192.55l-6.21-6.21c3.62-5.35,3.06-12.7-1.67-17.43l-34.93-34.93c-1.02-1.02-2.67-1.02-3.69,0
				c-1.02,1.02-1.02,2.67,0,3.69l14.93,14.93h-39.89l-19.98-19.98l19.95-19.95l15.29,15.29c1.02,1.02,2.67,1.02,3.69,0
				c1.02-1.02,1.02-2.67,0-3.69l-15.29-15.29l4.06-4.06c1.01-1.01,1.01-2.69,0-3.69l-15.76-15.76c-1.02-1.02-2.67-1.02-3.69,0
				l-6.03,6.03l-9.97-9.97c-5.36-5.36-14.09-5.36-19.45,0l-3.94,3.94c-5.36,5.36-5.36,14.09,0,19.45l9.97,9.97l-6.03,6.03
				c-1.02,1.02-1.02,2.67,0,3.69l15.76,15.76c1.01,1.01,2.69,1.01,3.69,0l4.06-4.06l59.93,59.93c4.73,4.73,12.08,5.29,17.43,1.67
				l6.21,6.21c3.15,3.15,8.42,3.15,11.57,0C235.64,200.97,235.64,195.7,232.49,192.55z M113.58,101.22c-3.33-3.33-3.33-8.74,0-12.07
				l3.94-3.94c3.33-3.33,8.74-3.33,12.07,0l9.97,9.97l-16.01,16.01L113.58,101.22z M131.43,134.83l-12.07-12.07L151.13,91
				l12.07,12.07L131.43,134.83z M228.79,200.43c-1.15,1.15-3.03,1.15-4.19,0l-7.88-7.88c-1.02-1.02-2.67-1.02-3.69,0
				c-3.33,3.33-8.74,3.33-12.07,0l-34.73-34.73h39.89l14.78,14.78c3.33,3.33,3.33,8.74,0,12.07c-1.02,1.02-1.02,2.67,0,3.69
				l7.88,7.88C229.95,197.39,229.95,199.27,228.79,200.43z"/>
		</g>
	</g>
	<g>
		<g>
			<path class="st2" d="M233.09,212.2c-0.5-0.62-1.25-0.98-2.04-0.98c-0.79,0-1.54,0.36-2.04,0.98c-1.48,1.85-14.5,18.34-14.5,26.71
				c0,9.12,7.42,16.54,16.54,16.54s16.54-7.42,16.54-16.54C247.59,230.53,234.57,214.05,233.09,212.2z M231.05,250.22
				c-6.24,0-11.32-5.08-11.32-11.32c0-4.32,6.29-14.12,11.32-20.81c5.03,6.7,11.32,16.49,11.32,20.81
				C242.37,245.14,237.29,250.22,231.05,250.22z"/>
		</g>
	</g>
</g>
</svg>
