<?xml version="1.0" encoding="utf-8"?>
<!-- Generator: Adobe Illustrator 23.1.1, SVG Export Plug-In . SVG Version: 6.00 Build 0)  -->
<svg version="1.1" id="Capa_1" xmlns="http://www.w3.org/2000/svg" xmlns:xlink="http://www.w3.org/1999/xlink" x="0px" y="0px"
	 viewBox="0 0 340.52 332.54" style="enable-background:new 0 0 340.52 332.54;" xml:space="preserve">
<style type="text/css">
	.st0{opacity:0.4;fill:#F39882;}
	.st1{fill:#F39882;}
	.st2{fill:#FFFFFF;}
</style>
<circle class="st0" cx="177.39" cy="166.47" r="124.53"/>
<circle class="st1" cx="166.61" cy="161.21" r="124.53"/>
<g>
	<path class="st2" d="M230.88,153.45c1.39,0,2.53-1.13,2.53-2.53v-39.66c0-3.21-2.61-5.81-5.82-5.81h-9.92v-7.83
		c0-3.21-2.61-5.82-5.82-5.82h-10.24v-7.84c0-3.21-2.61-5.82-5.82-5.82h-69.79c-1.4,0-2.53,1.13-2.53,2.53
		c0,1.4,1.13,2.53,2.53,2.53h69.79c0.42,0,0.76,0.34,0.76,0.76v131.94c0,0.42-0.34,0.76-0.76,0.76c-6.27,0-86.96,0-90.18,0
		c-0.42,0-0.76-0.34-0.76-0.76V83.95c0-0.42,0.34-0.76,0.76-0.76h10.28c1.39,0,2.53-1.13,2.53-2.53c0-1.39-1.13-2.53-2.53-2.53
		h-10.28c-3.21,0-5.82,2.61-5.82,5.82v131.94c0,3.21,2.61,5.81,5.82,5.81h10.25v7.83c0,3.21,2.6,5.82,5.81,5.82h9.92v7.84
		c0,3.21,2.61,5.82,5.81,5.82h90.18c3.21,0,5.82-2.61,5.82-5.82v-82.16c0-1.39-1.13-2.53-2.53-2.53c-1.4,0-2.53,1.13-2.53,2.53
		v82.16c0,0.42-0.34,0.76-0.76,0.76h-90.18c-0.42,0-0.76-0.34-0.76-0.76v-7.84h75.21c3.21,0,5.82-2.61,5.82-5.82v-34.97
		c0-1.39-1.13-2.53-2.53-2.53c-1.4,0-2.53,1.13-2.53,2.53v34.97c0,0.42-0.34,0.76-0.76,0.76c-2.41,0-87.75,0-90.18,0
		c-0.42,0-0.76-0.34-0.76-0.76v-7.83h74.88c3.21,0,5.82-2.61,5.82-5.81c0-3.69,0-113.2,0-119.04h10.24c0.42,0,0.76,0.34,0.76,0.76
		v12.89v73.96c0,1.4,1.13,2.53,2.53,2.53c1.4,0,2.53-1.13,2.53-2.53V110.5h9.92c0.42,0,0.76,0.34,0.76,0.76v39.66
		C228.35,152.31,229.48,153.45,230.88,153.45z"/>
	<path class="st2" d="M164.98,103.17c0-7.87-6.4-14.27-14.27-14.27c-7.87,0-14.27,6.4-14.27,14.27s6.4,14.26,14.27,14.26
		C158.58,117.43,164.98,111.03,164.98,103.17z M141.5,103.17c0-5.08,4.13-9.21,9.21-9.21c5.08,0,9.21,4.13,9.21,9.21
		c0,5.08-4.13,9.21-9.21,9.21C145.63,112.38,141.5,108.24,141.5,103.17z"/>
	<path class="st2" d="M185.21,105.69c1.4,0,2.53-1.13,2.53-2.53c0-1.4-1.13-2.53-2.53-2.53h-11.86c-1.4,0-2.53,1.13-2.53,2.53
		c0,1.4,1.13,2.53,2.53,2.53H185.21z"/>
	<path class="st2" d="M128.07,100.64h-11.86c-1.4,0-2.53,1.13-2.53,2.53c0,1.4,1.13,2.53,2.53,2.53h11.86c1.4,0,2.53-1.13,2.53-2.53
		C130.59,101.77,129.46,100.64,128.07,100.64z"/>
	<path class="st2" d="M119.53,127.16c0,1.4,1.13,2.53,2.53,2.53h57.31c1.4,0,2.53-1.13,2.53-2.53c0-1.4-1.13-2.53-2.53-2.53h-57.31
		C120.66,124.63,119.53,125.77,119.53,127.16z"/>
	<path class="st2" d="M179.36,136.9h-57.31c-1.4,0-2.53,1.13-2.53,2.53s1.13,2.53,2.53,2.53h57.31c1.4,0,2.53-1.13,2.53-2.53
		S180.76,136.9,179.36,136.9z"/>
	<path class="st2" d="M179.36,149.15h-57.31c-1.4,0-2.53,1.13-2.53,2.53c0,1.4,1.13,2.53,2.53,2.53h57.31c1.4,0,2.53-1.13,2.53-2.53
		C181.89,150.29,180.76,149.15,179.36,149.15z"/>
	<path class="st2" d="M179.36,161.41h-57.31c-1.4,0-2.53,1.13-2.53,2.53c0,1.4,1.13,2.53,2.53,2.53h57.31c1.4,0,2.53-1.13,2.53-2.53
		C181.89,162.55,180.76,161.41,179.36,161.41z"/>
	<path class="st2" d="M179.36,173.67h-57.31c-1.4,0-2.53,1.13-2.53,2.53c0,1.4,1.13,2.53,2.53,2.53h57.31c1.4,0,2.53-1.13,2.53-2.53
		C181.89,174.81,180.76,173.67,179.36,173.67z"/>
	<path class="st2" d="M180.46,186.51c-1.08-0.89-2.67-0.73-3.56,0.35l-12.07,14.72l-5.6-5.48c-1-0.98-2.6-0.96-3.58,0.04
		c-0.98,1-0.96,2.6,0.04,3.57l6.27,6.14c1.76,1.72,4.62,1.57,6.18-0.34l12.67-15.45C181.7,188.99,181.54,187.39,180.46,186.51z"/>
</g>
</svg>
