<?xml version="1.0" encoding="utf-8"?>
<!-- Generator: Adobe Illustrator 23.1.1, SVG Export Plug-In . SVG Version: 6.00 Build 0)  -->
<svg version="1.1" id="Capa_1" xmlns="http://www.w3.org/2000/svg" xmlns:xlink="http://www.w3.org/1999/xlink" x="0px" y="0px"
	 viewBox="0 0 340.52 319.41" style="enable-background:new 0 0 340.52 319.41;" xml:space="preserve">
<style type="text/css">
	.st0{opacity:0.4;fill:#F39882;}
	.st1{fill:#F39882;}
	.st2{fill:#FFFFFF;}
</style>
<circle class="st0" cx="177.39" cy="164.59" r="124.53"/>
<circle class="st1" cx="166.61" cy="159.33" r="124.53"/>
<g>
	<g id="Calendar_1_">
		<path class="st2" d="M235.91,101.08h-13.23v-5.29c0-5.85-4.74-10.59-10.59-10.59c-5.85,0-10.59,4.74-10.59,10.59v5.29h-21.17
			v-5.29c0-5.85-4.74-10.59-10.59-10.59c-5.85,0-10.59,4.74-10.59,10.59v5.29h-21.17v-5.29c0-5.85-4.74-10.59-10.59-10.59
			s-10.59,4.74-10.59,10.59v5.29h-13.23c-7.31,0-13.23,5.92-13.23,13.23v105.86c0,7.31,5.92,13.23,13.23,13.23h74.1
			c1.46,0,2.65-1.18,2.65-2.65c0-1.46-1.18-2.65-2.65-2.65h-74.1c-4.38-0.01-7.93-3.56-7.94-7.94v-82.04h148.2v44.99
			c0,1.46,1.18,2.65,2.65,2.65s2.65-1.18,2.65-2.65v-68.81C249.14,107,243.22,101.08,235.91,101.08z M206.8,95.79
			c0-2.92,2.37-5.29,5.29-5.29c2.92,0,5.29,2.37,5.29,5.29v15.88c0,2.92-2.37,5.29-5.29,5.29c-2.92,0-5.29-2.37-5.29-5.29V95.79z
			 M164.46,95.79c0-2.92,2.37-5.29,5.29-5.29c2.92,0,5.29,2.37,5.29,5.29v15.88c0,2.92-2.37,5.29-5.29,5.29
			c-2.92,0-5.29-2.37-5.29-5.29V95.79z M122.11,95.79c0-2.92,2.37-5.29,5.29-5.29c2.92,0,5.29,2.37,5.29,5.29v15.88
			c0,2.92-2.37,5.29-5.29,5.29c-2.92,0-5.29-2.37-5.29-5.29V95.79z M243.85,132.84H95.65v-18.52c0.01-4.38,3.56-7.93,7.94-7.94
			h13.23v5.29c0,5.85,4.74,10.59,10.59,10.59s10.59-4.74,10.59-10.59v-5.29h21.17v5.29c0,5.85,4.74,10.59,10.59,10.59
			c5.85,0,10.59-4.74,10.59-10.59v-5.29h21.17v5.29c0,5.85,4.74,10.59,10.59,10.59c5.85,0,10.59-4.74,10.59-10.59v-5.29h13.23
			c4.38,0.01,7.93,3.56,7.94,7.94V132.84z"/>
		<path class="st2" d="M164.46,156.65c0-2.92-2.37-5.29-5.29-5.29h-10.59c-2.92,0-5.29,2.37-5.29,5.29v7.94
			c0,2.92,2.37,5.29,5.29,5.29h10.59c2.92,0,5.29-2.37,5.29-5.29V156.65z M148.58,164.59v-7.94h10.59v7.94H148.58z"/>
		<path class="st2" d="M132.7,156.65c0-2.92-2.37-5.29-5.29-5.29h-10.59c-2.92,0-5.29,2.37-5.29,5.29v7.94
			c0,2.92,2.37,5.29,5.29,5.29h10.59c2.92,0,5.29-2.37,5.29-5.29V156.65z M116.82,164.59v-7.94h10.59v7.94H116.82z"/>
		<path class="st2" d="M222.68,169.88c2.92,0,5.29-2.37,5.29-5.29v-7.94c0-2.92-2.37-5.29-5.29-5.29h-10.59
			c-2.92,0-5.29,2.37-5.29,5.29v7.94c0,2.92,2.37,5.29,5.29,5.29H222.68z M212.09,156.65h10.59v7.94h-10.59V156.65z"/>
		<path class="st2" d="M164.46,180.47c0-2.92-2.37-5.29-5.29-5.29h-10.59c-2.92,0-5.29,2.37-5.29,5.29v7.94
			c0,2.92,2.37,5.29,5.29,5.29h10.59c2.92,0,5.29-2.37,5.29-5.29V180.47z M148.58,188.41v-7.94h10.59v7.94H148.58z"/>
		<path class="st2" d="M132.7,180.47c0-2.92-2.37-5.29-5.29-5.29h-10.59c-2.92,0-5.29,2.37-5.29,5.29v7.94
			c0,2.92,2.37,5.29,5.29,5.29h10.59c2.92,0,5.29-2.37,5.29-5.29V180.47z M116.82,188.41v-7.94h10.59v7.94H116.82z"/>
		<path class="st2" d="M159.16,199h-10.59c-2.92,0-5.29,2.37-5.29,5.29v7.94c0,2.92,2.37,5.29,5.29,5.29h10.59
			c2.92,0,5.29-2.37,5.29-5.29v-7.94C164.46,201.36,162.09,199,159.16,199z M148.58,212.23v-7.94h10.59v7.94H148.58z"/>
		<path class="st2" d="M180.34,169.88h10.59c2.92,0,5.29-2.37,5.29-5.29v-7.94c0-2.92-2.37-5.29-5.29-5.29h-10.59
			c-2.92,0-5.29,2.37-5.29,5.29v7.94C175.04,167.52,177.41,169.88,180.34,169.88z M180.34,156.65h10.59v7.94h-10.59V156.65z"/>
		<path class="st2" d="M175.04,188.41c0,2.92,2.37,5.29,5.29,5.29c1.46,0,2.65-1.18,2.65-2.65s-1.18-2.65-2.65-2.65v-7.94h10.59
			c1.46,0,2.65-1.18,2.65-2.65s-1.18-2.65-2.65-2.65h-10.59c-2.92,0-5.29,2.37-5.29,5.29V188.41z"/>
		<path class="st2" d="M127.41,199h-10.59c-2.92,0-5.29,2.37-5.29,5.29v7.94c0,2.92,2.37,5.29,5.29,5.29h10.59
			c2.92,0,5.29-2.37,5.29-5.29v-7.94C132.7,201.36,130.33,199,127.41,199z M116.82,212.23v-7.94h10.59v7.94H116.82z"/>
		<path class="st2" d="M214.74,175.18c-19,0-34.4,15.4-34.4,34.4s15.4,34.4,34.4,34.4s34.4-15.4,34.4-34.4
			C249.12,190.59,233.73,175.2,214.74,175.18z M214.74,238.69c-16.08,0-29.11-13.03-29.11-29.11s13.03-29.11,29.11-29.11
			s29.11,13.03,29.11,29.11C243.83,225.65,230.81,238.67,214.74,238.69z"/>
		<path class="st2" d="M230.03,198.49l-20.58,20.58l-9.35-9.36c-1.05-1.02-2.73-0.99-3.74,0.06c-0.99,1.03-0.99,2.65,0,3.68
			l11.23,11.23c1.03,1.03,2.71,1.03,3.74,0l22.45-22.45c1.02-1.05,0.99-2.73-0.06-3.74C232.68,197.5,231.05,197.5,230.03,198.49z"/>
	</g>
</g>
</svg>
