<?xml version="1.0" encoding="utf-8"?>
<!-- Generator: Adobe Illustrator 23.1.1, SVG Export Plug-In . SVG Version: 6.00 Build 0)  -->
<svg version="1.1" id="Capa_1" xmlns="http://www.w3.org/2000/svg" xmlns:xlink="http://www.w3.org/1999/xlink" x="0px" y="0px"
	 viewBox="0 0 329.88 335.2" style="enable-background:new 0 0 329.88 335.2;" xml:space="preserve">
<style type="text/css">
	.st0{opacity:0.4;fill:#F39882;}
	.st1{fill:#F39882;}
	.st2{fill:#FFFFFF;}
</style>
<circle class="st0" cx="177.39" cy="180.41" r="124.53"/>
<circle class="st1" cx="166.61" cy="175.15" r="124.53"/>
<g>
	<path class="st2" d="M221.34,227.49c-29.43,0-53.36-21.12-53.36-47.09s23.94-47.09,53.36-47.09s53.36,21.12,53.36,47.09
		S250.76,227.49,221.34,227.49z M221.34,139.6c-25.96,0-47.09,18.31-47.09,40.81s21.12,40.81,47.09,40.81s47.09-18.31,47.09-40.81
		S247.3,139.6,221.34,139.6z"/>
	<path class="st2" d="M171.69,183.55h99.31v6.28h-99.31V183.55z"/>
	<path class="st2" d="M171.69,170.99h99.31v6.28h-99.31V170.99z"/>
	<path class="st2" d="M171.11,252.61H95.78c-8.65,0-15.7-7.04-15.7-15.7v-113c0-8.65,7.04-15.7,15.7-15.7h75.34
		c8.65,0,15.7,7.04,15.7,15.7v27.5h-6.28v-27.5c0-5.19-4.23-9.42-9.42-9.42H95.78c-5.19,0-9.42,4.23-9.42,9.42v113
		c0,5.19,4.23,9.42,9.42,9.42h75.34c5.19,0,9.42-4.23,9.42-9.42v-27.5h6.28v27.5C186.81,245.57,179.77,252.61,171.11,252.61z"/>
	<path class="st2" d="M130.31,111.35h6.28v138.12h-6.28V111.35z"/>
	<path class="st2" d="M108.33,152.16c-8.65,0-15.7-7.04-15.7-15.7s7.04-15.7,15.7-15.7s15.7,7.04,15.7,15.7
		S116.99,152.16,108.33,152.16z M108.33,127.05c-5.19,0-9.42,4.23-9.42,9.42s4.23,9.42,9.42,9.42s9.42-4.23,9.42-9.42
		S113.53,127.05,108.33,127.05z"/>
	<path class="st2" d="M158.56,152.16c-8.65,0-15.7-7.04-15.7-15.7s7.04-15.7,15.7-15.7s15.7,7.04,15.7,15.7
		S167.21,152.16,158.56,152.16z M158.56,127.05c-5.19,0-9.42,4.23-9.42,9.42s4.23,9.42,9.42,9.42s9.42-4.23,9.42-9.42
		S163.75,127.05,158.56,127.05z"/>
	<path class="st2" d="M108.33,196.1c-8.65,0-15.7-7.04-15.7-15.7c0-8.65,7.04-15.7,15.7-15.7s15.7,7.04,15.7,15.7
		C124.03,189.06,116.99,196.1,108.33,196.1z M108.33,170.99c-5.19,0-9.42,4.23-9.42,9.42c0,5.19,4.23,9.42,9.42,9.42
		s9.42-4.23,9.42-9.42C117.75,175.22,113.53,170.99,108.33,170.99z"/>
	<path class="st2" d="M158.56,196.1c-8.65,0-15.7-7.04-15.7-15.7c0-8.65,7.04-15.7,15.7-15.7s15.7,7.04,15.7,15.7
		C174.25,189.06,167.21,196.1,158.56,196.1z M158.56,170.99c-5.19,0-9.42,4.23-9.42,9.42c0,5.19,4.23,9.42,9.42,9.42
		s9.42-4.23,9.42-9.42C167.98,175.22,163.75,170.99,158.56,170.99z"/>
	<path class="st2" d="M108.33,240.05c-8.65,0-15.7-7.04-15.7-15.7s7.04-15.7,15.7-15.7s15.7,7.04,15.7,15.7
		S116.99,240.05,108.33,240.05z M108.33,214.94c-5.19,0-9.42,4.23-9.42,9.42s4.23,9.42,9.42,9.42s9.42-4.23,9.42-9.42
		S113.53,214.94,108.33,214.94z"/>
	<path class="st2" d="M158.56,240.05c-8.65,0-15.7-7.04-15.7-15.7s7.04-15.7,15.7-15.7s15.7,7.04,15.7,15.7
		S167.21,240.05,158.56,240.05z M158.56,214.94c-5.19,0-9.42,4.23-9.42,9.42s4.23,9.42,9.42,9.42s9.42-4.23,9.42-9.42
		S163.75,214.94,158.56,214.94z"/>
</g>
</svg>
