<?xml version="1.0" encoding="utf-8"?>
<!-- Generator: Adobe Illustrator 23.1.1, SVG Export Plug-In . SVG Version: 6.00 Build 0)  -->
<svg version="1.1" id="Capa_1" xmlns="http://www.w3.org/2000/svg" xmlns:xlink="http://www.w3.org/1999/xlink" x="0px" y="0px"
	 viewBox="0 0 340.52 337.86" style="enable-background:new 0 0 340.52 337.86;" xml:space="preserve">
<style type="text/css">
	.st0{opacity:0.4;fill:#F39882;}
	.st1{fill:#F39882;}
	.st2{fill:#FFFFFF;}
</style>
<circle class="st0" cx="177.39" cy="174.13" r="124.53"/>
<circle class="st1" cx="166.61" cy="168.87" r="124.53"/>
<g>
	<g>
		<g>
			<path class="st2" d="M201.02,146.39c-3.07,0-6.13,0.28-9.14,0.81c0.53-2.99,0.8-6.05,0.8-9.15c0-13.88-5.4-26.93-15.22-36.74
				c-9.81-9.81-22.86-15.22-36.74-15.22c-13.88,0-26.93,5.4-36.74,15.22c-9.81,9.81-15.22,22.86-15.22,36.74
				c0,13.88,5.4,26.93,15.22,36.74c9.81,9.81,22.86,15.22,36.74,15.22c0,0,0,0,0,0c13.88,0,26.93-5.4,36.74-15.22
				c5.9-5.9,10.2-12.97,12.7-20.68c3.54-0.86,7.18-1.31,10.86-1.31c25.11,0,45.54,20.43,45.54,45.54
				c0,24.03-18.71,43.78-42.34,45.43V177.5c0-1.77-1.44-3.21-3.21-3.21s-3.21,1.44-3.21,3.21v66.27
				c-23.62-1.65-42.34-21.39-42.34-45.43c0-1.77-1.44-3.21-3.21-3.21s-3.21,1.44-3.21,3.21c0,28.65,23.31,51.96,51.96,51.96
				s51.96-23.31,51.96-51.96C252.98,169.7,229.67,146.39,201.02,146.39z M172.93,170.26c-8.6,8.6-20.04,13.34-32.2,13.34
				c-12.17,0-23.6-4.74-32.2-13.34c-8.6-8.6-13.34-20.04-13.34-32.2c0-11.09,3.94-21.57,11.15-29.86l54.6,54.6
				c0.63,0.63,1.45,0.94,2.27,0.94s1.64-0.31,2.27-0.94c1.25-1.25,1.25-3.28,0-4.54l-54.59-54.6c8.28-7.21,18.77-11.15,29.86-11.15
				c12.17,0,23.6,4.74,32.2,13.34c8.6,8.6,13.34,20.04,13.34,32.2C186.27,150.22,181.54,161.66,172.93,170.26z"/>
		</g>
	</g>
	<g>
		<g>
			<path class="st2" d="M203.29,162.4c-0.6-0.6-1.42-0.94-2.27-0.94c-0.85,0-1.67,0.34-2.27,0.94c-0.6,0.6-0.94,1.42-0.94,2.27
				s0.34,1.67,0.94,2.27c0.6,0.6,1.42,0.94,2.27,0.94c0.84,0,1.67-0.34,2.27-0.94c0.6-0.6,0.94-1.42,0.94-2.27
				S203.89,163,203.29,162.4z"/>
		</g>
	</g>
	<g>
		<g>
			<path class="st2" d="M131.77,102.58c-0.55-1.68-2.36-2.6-4.05-2.05c-0.03,0.01-0.08,0.03-0.11,0.04c-1.67,0.6-2.53,2.44-1.93,4.1
				c0.47,1.31,1.7,2.12,3.02,2.12c0.35,0,0.71-0.06,1.06-0.18C131.41,106.05,132.32,104.25,131.77,102.58z"/>
		</g>
	</g>
	<g>
		<g>
			<path class="st2" d="M168.81,109.97c-7.84-7.84-18.69-12.06-29.77-11.6c-1.77,0.07-3.14,1.57-3.07,3.34
				c0.08,1.77,1.56,3.14,3.34,3.07c9.29-0.39,18.39,3.15,24.96,9.72c0.63,0.63,1.45,0.94,2.27,0.94s1.64-0.31,2.27-0.94
				C170.06,113.26,170.06,111.23,168.81,109.97z"/>
		</g>
	</g>
</g>
</svg>
