<?xml version="1.0" encoding="utf-8"?>
<!-- Generator: Adobe Illustrator 23.1.1, SVG Export Plug-In . SVG Version: 6.00 Build 0)  -->
<svg version="1.1" id="Capa_1" xmlns="http://www.w3.org/2000/svg" xmlns:xlink="http://www.w3.org/1999/xlink" x="0px" y="0px"
	 viewBox="0 0 348.5 307.57" style="enable-background:new 0 0 348.5 307.57;" xml:space="preserve">
<style type="text/css">
	.st0{opacity:0.4;fill:#F39882;}
	.st1{fill:#F39882;}
	.st2{fill:#FFFFFF;}
</style>
<circle class="st0" cx="184.04" cy="148.24" r="124.53"/>
<circle class="st1" cx="173.25" cy="142.98" r="124.53"/>
<g>
	<path class="st2" d="M178.61,199.85c-1.46,0-2.64,1.18-2.64,2.64s1.18,2.64,2.64,2.64c1.46,0,2.64-1.18,2.64-2.64
		S180.07,199.85,178.61,199.85z M178.61,183.98c-1.46,0-2.64,1.18-2.64,2.64s1.18,2.64,2.64,2.64c1.46,0,2.64-1.18,2.64-2.64
		S180.07,183.98,178.61,183.98z M178.61,215.71c-1.46,0-2.64,1.18-2.64,2.64c0,1.46,1.18,2.64,2.64,2.64c1.46,0,2.64-1.18,2.64-2.64
		C181.25,216.89,180.07,215.71,178.61,215.71z M230.55,161.47l-11.77-3.96c6.51-4.63,10.58-12.24,10.58-20.45
		c0.02-0.03,0-45.8,0-45.8c0-13.55-5.28-26.3-14.87-35.89c-9.59-9.59-22.33-14.87-35.89-14.87c-8.71,0-17.3,2.24-24.85,6.49
		c-1.27,0.72-1.72,2.33-1.01,3.6c0.72,1.27,2.33,1.72,3.6,1.01c6.76-3.8,14.45-5.81,22.25-5.81c12.15,0,23.56,4.73,32.15,13.32
		c8.59,8.59,13.32,20.01,13.32,32.15v0.01c-1.54-0.88-3.31-1.39-5.21-1.39h-2.54c-7.07-1.21-14.01-3.22-20.62-5.96
		c-5.03-2.09-9.92-4.63-14.54-7.54c-1.62-1.02-3.72-0.93-5.24,0.24c-3.6,2.75-7.48,5.13-11.55,7.06c-7.3,3.48-15.17,5.57-23.36,6.21
		h-2.67c-1.89,0-3.67,0.51-5.21,1.39v-0.01c0-12.3,4.84-23.83,13.62-32.45c1.04-1.02,1.06-2.7,0.03-3.74
		c-1.02-1.04-2.7-1.06-3.74-0.03c-9.8,9.62-15.2,22.49-15.2,36.22v45.8c0,8.21,4.08,15.82,10.58,20.45l-11.77,3.96
		c-9.69,3.26-16.21,12.33-16.21,22.55v34.33c0,1.46,1.18,2.64,2.64,2.64c1.46,0,2.64-1.18,2.64-2.64v-34.33
		c0-7.95,5.07-15,12.61-17.54l4.59-1.55c-0.68,2.79-0.98,5.68-0.87,8.53c0.1,2.71,0.56,5.37,1.35,7.95
		c-5.14,1.54-8.89,6.31-8.89,11.94v10.76c0,2.66,2.17,4.83,4.83,4.83h2.96c1.46,0,2.64-1.18,2.64-2.64s-1.18-2.64-2.64-2.64h-2.5
		v-10.3c0-3.96,3.22-7.18,7.18-7.18c0,0,0,0,0.01,0c0,0,0,0,0.01,0c3.96,0,7.17,3.22,7.17,7.18v10.3h-2.5
		c-1.46,0-2.64,1.18-2.64,2.64s1.18,2.64,2.64,2.64h2.96c2.66,0,4.83-2.17,4.83-4.83v-10.76c0-6.24-4.61-11.43-10.61-12.33
		c-0.9-2.5-1.41-5.1-1.5-7.76c-0.13-3.52,0.48-7.1,1.78-10.41l18.04-6.07l18.92,18.92c1.55,1.56,4.18,1.57,5.73,0l5.22-5.22
		c1.03-1.03,1.03-2.71,0-3.74c-1.03-1.03-2.71-1.03-3.74,0l-4.35,4.35l-16.76-16.76c2.49-2.16,3.62-5.45,3.36-8.78
		c4.05,1.41,8.39,2.19,12.9,2.2c4.55,0.02,9-0.73,13.19-2.16c-0.43,3.37,1.13,7.04,3.75,9.05l-3.39,3.39
		c-1.03,1.03-1.03,2.71,0,3.74c1.03,1.03,2.71,1.03,3.74,0l4.82-4.82l16.1,5.42c1.22,3.1,1.85,6.45,1.81,9.76
		c-0.03,3-0.6,6.04-1.66,8.87c-6.87,0.9-12.2,6.79-12.2,13.9c0,7.74,6.29,14.03,14.03,14.03c7.74,0,14.03-6.29,14.03-14.03
		c0-6.48-4.41-11.94-10.39-13.55c0.94-2.97,1.45-6.09,1.48-9.18c0.02-2.59-0.28-5.2-0.9-7.73l5.99,2.02
		c7.54,2.54,12.61,9.59,12.61,17.54v34.33c0,1.46,1.18,2.64,2.64,2.64s2.64-1.18,2.64-2.64v-34.33
		C246.76,173.79,240.25,164.73,230.55,161.47z M218.74,95.17h0.14c2.86,0,5.19,2.33,5.21,5.19v0.04c-0.01,2.9-2.43,5.27-5.34,5.19
		V95.17z M133.14,100.36c0.01-2.9,2.43-5.27,5.34-5.19v10.41c-2.91,0.08-5.33-2.28-5.34-5.19V100.36z M160.28,146.99
		c0,1.89-1.2,3.57-3,4.17l-12.13,4.08c-7.22-3.09-12.01-10.29-12.01-18.19v-27.57c1.66,0.96,3.49,1.42,5.51,1.39
		c1.26,14.11,9.72,26.18,21.63,32.4V146.99z M178.48,142.47c-19.14-0.07-34.72-15.88-34.72-35.25V94.94
		c8-0.88,15.69-3.06,22.88-6.49c4.25-2.03,8.32-4.5,12.1-7.35c4.75,2.97,9.76,5.56,14.92,7.7c6.36,2.64,13,4.63,19.77,5.93v12.9
		c0,9.33-3.64,18.09-10.25,24.68C196.48,139.01,188.09,142.51,178.48,142.47z M212.07,155.25l-12.13-4.08c-1.79-0.6-3-2.28-3-4.17
		v-3.64c3.64-1.87,7.01-4.32,9.99-7.29c6.84-6.82,10.92-15.66,11.67-25.18c1.94,0.03,3.88-0.46,5.47-1.39v27.57
		C224.08,144.96,219.29,152.16,212.07,155.25L212.07,155.25z M227.4,194.91c0,4.82-3.92,8.74-8.74,8.74c-4.82,0-8.74-3.92-8.74-8.74
		c0-4.82,3.92-8.73,8.73-8.74c0,0,0.01,0,0.01,0c0,0,0,0,0.01,0C223.48,186.17,227.4,190.09,227.4,194.91z M195.7,97.33
		c-1.46,0-2.64,1.18-2.64,2.64v6.05c0,1.46,1.18,2.64,2.64,2.64s2.64-1.18,2.64-2.64v-6.05C198.35,98.51,197.16,97.33,195.7,97.33z
		 M182.36,122.45c-0.6,0.42-1.84,1.14-3.52,1.2c-1.89,0.07-3.31-0.72-3.99-1.2c-1.19-0.84-2.84-0.56-3.69,0.63
		c-0.84,1.19-0.56,2.84,0.63,3.69c1.17,0.83,3.57,2.18,6.82,2.18c2.84,0,5.48-1.23,6.81-2.18c1.19-0.85,1.47-2.5,0.62-3.69
		C185.2,121.88,183.55,121.6,182.36,122.45z M161.51,97.33c-1.46,0-2.64,1.18-2.64,2.64v6.05c0,1.46,1.18,2.64,2.64,2.64
		s2.64-1.18,2.64-2.64v-6.05C164.15,98.51,162.97,97.33,161.51,97.33z"/>
</g>
</svg>
