<?xml version="1.0" encoding="utf-8"?>
<!-- Generator: Adobe Illustrator 23.1.1, SVG Export Plug-In . SVG Version: 6.00 Build 0)  -->
<svg version="1.1" id="Capa_1" xmlns="http://www.w3.org/2000/svg" xmlns:xlink="http://www.w3.org/1999/xlink" x="0px" y="0px"
	 viewBox="0 0 348.5 349.24" style="enable-background:new 0 0 348.5 349.24;" xml:space="preserve">
<style type="text/css">
	.st0{opacity:0.4;fill:#F39882;}
	.st1{fill:#F39882;}
	.st2{fill:#FFFFFF;}
</style>
<circle class="st0" cx="184.04" cy="192.25" r="124.53"/>
<circle class="st1" cx="173.25" cy="186.99" r="124.53"/>
<g>
	<g>
		<g>
			<path class="st2" d="M173.74,253.32c0-4.82-3.92-8.74-8.74-8.74c-4.82,0-8.74,3.92-8.74,8.74c0,4.82,3.92,8.74,8.74,8.74
				C169.82,262.07,173.74,258.14,173.74,253.32z M162,253.32c0-1.65,1.34-3,3-3s3,1.34,3,3c0,1.65-1.34,3-3,3
				C163.34,256.32,162,254.97,162,253.32z"/>
			<path class="st2" d="M245.13,191.21c5.49-8.8,5.54-19.9-0.01-28.8L227,133.39c0,0,0,0,0,0c0,0,0,0,0,0l-18.12-29.02
				c-7.94-12.73-24.76-16.62-37.49-8.67c-6.17,3.85-10.46,9.87-12.1,16.95c-0.31,1.35-0.52,2.7-0.62,4.05
				c-7.09-0.35-14,2.07-19.38,6.85l-25.55,22.75c0,0,0,0,0,0c0,0,0,0,0,0l-25.55,22.75c-5.43,4.83-8.65,11.49-9.07,18.75
				c-0.42,7.26,2.01,14.24,6.84,19.67c2.26,2.54,4.93,4.6,7.92,6.13c0.42,0.21,0.87,0.32,1.31,0.32c1.04,0,2.05-0.57,2.56-1.57
				c0.72-1.41,0.16-3.14-1.25-3.87c-2.36-1.21-4.47-2.84-6.25-4.84c-7.87-8.84-7.08-22.43,1.76-30.3l23.4-20.84l22.18,24.9
				c-2.45,0.29-4.88,0.92-7.22,1.89c-6.71,2.78-11.94,8.01-14.73,14.73c-2.05,4.94-2.58,10.24-1.62,15.37
				c-1.91,0.74-3.92,1.2-6,1.37c-1.58,0.13-2.76,1.51-2.63,3.1c0.12,1.5,1.38,2.64,2.86,2.64c0.08,0,0.16,0,0.23-0.01
				c2.48-0.2,4.88-0.74,7.18-1.58c2.79,6.68,8,11.89,14.7,14.66L160,241.85c0.63,0.26,1.27,0.38,1.91,0.38
				c1.97,0,3.84-1.17,4.64-3.1l1.66-4c1.22,0.67,2.61,1.05,4.06,1.05c4.66,0,8.46-3.8,8.46-8.46c0-3.84-2.57-7.09-6.08-8.12
				l6.43-15.52l10.15,24.49c-4.21,1.14-7.32,5-7.32,9.57c0,5.47,4.45,9.91,9.91,9.91c4.29,0,7.99-2.71,9.35-6.64l28.61-11.85
				c13.86-5.74,20.47-21.69,14.73-35.55C246.09,193.05,245.63,192.12,245.13,191.21z M119.71,148.69l23.4-20.84
				c4.35-3.87,9.98-5.77,15.72-5.38c0.51,3.76,1.81,7.4,3.88,10.72l13.31,21.32c-1.15,2.02-2.61,3.83-4.37,5.4l-21.39,19.04
				c-1.57-0.59-3.17-1.02-4.79-1.31L119.71,148.69z M174.98,227.72c0,1.5-1.22,2.71-2.71,2.71c-0.68,0-1.33-0.26-1.82-0.71
				l1.95-4.71C173.83,225.09,174.98,226.27,174.98,227.72z M161.52,236.26l-28.95-11.99c-10.93-4.53-16.14-17.11-11.62-28.04
				c4.53-10.93,17.11-16.14,28.04-11.62l28.95,11.99L161.52,236.26z M181.07,191.69c-0.08-0.04-0.16-0.08-0.24-0.12l-24.63-10.2
				l19.29-17.18c1.47-1.31,2.77-2.75,3.9-4.31l16.12,25.82l-14.19,5.88C181.23,191.61,181.15,191.65,181.07,191.69z M193.81,242.31
				c-2.3,0-4.17-1.87-4.17-4.17c0-2.18,1.68-3.97,3.81-4.15l2.13,5.14c0.3,0.72,0.75,1.34,1.3,1.82
				C196.12,241.8,195.02,242.31,193.81,242.31z M241.18,212.65c-2.19,5.3-6.32,9.42-11.62,11.62l-28.95,11.99l-16.43-39.66
				l28.95-11.99c5.3-2.19,11.13-2.19,16.43,0c4,1.66,7.33,4.42,9.67,7.95c0.03,0.06,0.07,0.12,0.11,0.18
				c0.71,1.09,1.33,2.26,1.84,3.49C243.38,201.52,243.38,207.35,241.18,212.65z M241.42,186.04c-2.65-2.89-5.92-5.2-9.65-6.74
				c-6.71-2.78-14.11-2.78-20.82,0l-10.06,4.17l-13.65-21.86l21.56-13.46c1.35-0.84,1.76-2.61,0.92-3.96
				c-0.84-1.35-2.61-1.76-3.96-0.92l-21.56,13.46l-16.6-26.58c-1.96-3.14-3.05-6.65-3.23-10.25c0-0.08,0-0.16-0.01-0.24
				c-0.07-1.89,0.1-3.81,0.54-5.71c1.29-5.59,4.68-10.33,9.54-13.37c10.04-6.27,23.3-3.2,29.57,6.84L220.6,134l-3.41,2.13
				c-1.35,0.84-1.76,2.61-0.92,3.96c0.55,0.87,1.48,1.35,2.44,1.35c0.52,0,1.05-0.14,1.52-0.44l3.41-2.13l16.6,26.58
				C244.19,171.77,244.55,179.5,241.42,186.04z"/>
			<path class="st2" d="M189.58,251.6c-4.66,0-8.46,3.8-8.46,8.46c0,4.66,3.79,8.46,8.46,8.46s8.46-3.8,8.46-8.46
				C198.04,255.39,194.25,251.6,189.58,251.6z M189.58,262.77c-1.5,0-2.71-1.22-2.71-2.71c0-1.5,1.22-2.71,2.71-2.71
				c1.5,0,2.71,1.22,2.71,2.71C192.3,261.55,191.08,262.77,189.58,262.77z"/>
			<path class="st2" d="M172.27,266.89c-5.74,0-10.41,4.67-10.41,10.42c0,5.74,4.67,10.42,10.41,10.42
				c5.74,0,10.42-4.67,10.42-10.42C182.68,271.57,178.01,266.89,172.27,266.89z M172.27,281.98c-2.57,0-4.67-2.09-4.67-4.67
				c0-2.57,2.09-4.67,4.67-4.67s4.67,2.09,4.67,4.67C176.93,279.88,174.84,281.98,172.27,281.98z"/>
		</g>
	</g>
</g>
</svg>
