<?xml version="1.0" encoding="utf-8"?>
<!-- Generator: Adobe Illustrator 23.1.1, SVG Export Plug-In . SVG Version: 6.00 Build 0)  -->
<svg version="1.1" id="Capa_1" xmlns="http://www.w3.org/2000/svg" xmlns:xlink="http://www.w3.org/1999/xlink" x="0px" y="0px"
	 viewBox="0 0 340.52 310.83" style="enable-background:new 0 0 340.52 310.83;" xml:space="preserve">
<style type="text/css">
	.st0{opacity:0.4;fill:#F39882;}
	.st1{fill:#F39882;}
	.st2{fill:#FFFFFF;}
</style>
<circle class="st0" cx="177.39" cy="151.95" r="124.53"/>
<circle class="st1" cx="166.61" cy="146.69" r="124.53"/>
<g>
	<path class="st2" d="M169.81,112.97c-24.2,0-43.89,19.69-43.89,43.89s19.69,43.89,43.89,43.89s43.89-19.69,43.89-43.89
		S194.01,112.97,169.81,112.97z M169.81,194.33c-20.67,0-37.48-16.81-37.48-37.48s16.81-37.48,37.48-37.48s37.48,16.81,37.48,37.48
		S190.47,194.33,169.81,194.33z"/>
	<path class="st2" d="M189.8,146.24h-9.38v-9.38c0-1.77-1.43-3.2-3.2-3.2H162.4c-1.77,0-3.2,1.43-3.2,3.2v9.38h-9.37
		c-1.77,0-3.2,1.43-3.2,3.2v14.82c0,1.77,1.43,3.2,3.2,3.2h9.38v9.38c0,1.77,1.43,3.2,3.2,3.2h14.82c1.77,0,3.2-1.43,3.2-3.2v-9.38
		h9.38c1.77,0,3.2-1.43,3.2-3.2v-14.82C193,147.68,191.57,146.24,189.8,146.24z M186.59,161.06h-9.38c-1.77,0-3.2,1.43-3.2,3.2v9.38
		h-8.41v-9.38c0-1.77-1.43-3.2-3.2-3.2h-9.37v-8.41h9.38c1.77,0,3.2-1.43,3.2-3.2v-9.38h8.41v9.38c0,1.77,1.43,3.2,3.2,3.2h9.38
		L186.59,161.06L186.59,161.06z"/>
	<path class="st2" d="M238.54,96.22h-32.2V79.89c0-6.47-5.26-11.74-11.73-11.74H145c-6.47,0-11.73,5.27-11.73,11.74v16.33h-32.19
		c-7.32,0-13.28,5.96-13.28,13.28v93.67c0,7.32,5.96,13.28,13.28,13.28h137.47c7.32,0,13.28-5.96,13.28-13.28V109.5
		C251.83,102.18,245.87,96.22,238.54,96.22L238.54,96.22z M227.48,102.62v11.75h-16.18v-11.75H227.48z M139.68,79.89
		c0-2.94,2.39-5.33,5.33-5.33h49.61c2.94,0,5.33,2.39,5.33,5.33v16.33h-7.93V85.71c0-1.77-1.43-3.2-3.2-3.2h-37.99
		c-1.77,0-3.2,1.43-3.2,3.2v10.51h-7.93L139.68,79.89z M154.02,96.22v-7.31h31.58v7.31L154.02,96.22L154.02,96.22z M128.32,102.62
		v11.75h-16.18v-11.75H128.32z M245.42,203.17c0,3.79-3.08,6.87-6.87,6.87H101.08c-3.79,0-6.87-3.08-6.87-6.87V109.5
		c0-3.79,3.08-6.87,6.87-6.87h4.66v14.96c0,1.77,1.43,3.2,3.2,3.2h22.59c1.77,0,3.2-1.43,3.2-3.2v-14.96h70.16v14.96
		c0,1.77,1.43,3.2,3.2,3.2h22.59c1.77,0,3.2-1.43,3.2-3.2v-14.96h4.66c3.79,0,6.87,3.08,6.87,6.87V203.17z"/>
</g>
</svg>
